HIERARCHY
ROOT root
{
	OFFSET 0.000000 0.000000 0.000000
	CHANNELS 6 Xposition Yposition Zposition Zrotation Yrotation Xrotation
	JOINT lhip
	{
		OFFSET 0.058581 -0.082280 -0.017664
		CHANNELS 3 Zrotation Yrotation Xrotation
		JOINT lknee
		{
			OFFSET 0.043451 -0.386469 0.008037
			CHANNELS 3 Zrotation Yrotation Xrotation
			JOINT lankle
			{
				OFFSET -0.014790 -0.426874 -0.037428
				CHANNELS 3 Zrotation Yrotation Xrotation
				JOINT ltoe
				{
					OFFSET 0.041054 -0.060286 0.122042
					CHANNELS 3 Zrotation Yrotation Xrotation
					End Site
					{
						OFFSET 0.000000 0.000000 0.000000
					}
				}
			}
		}
	}
	JOINT rhip
	{
		OFFSET -0.060310 -0.090513 -0.013543
		CHANNELS 3 Zrotation Yrotation Xrotation
		JOINT rknee
		{
			OFFSET -0.043257 -0.383688 -0.004843
			CHANNELS 3 Zrotation Yrotation Xrotation
			JOINT rankle
			{
				OFFSET 0.019056 -0.420046 -0.034562
				CHANNELS 3 Zrotation Yrotation Xrotation
				JOINT rtoe
				{
					OFFSET -0.034840 -0.062106 0.130323
					CHANNELS 3 Zrotation Yrotation Xrotation
					End Site
					{
						OFFSET 0.000000 0.000000 0.000000
					}
				}
			}
		}
	}
	JOINT lowerback
	{
		OFFSET 0.004439 0.124404 -0.038385
		CHANNELS 3 Zrotation Yrotation Xrotation
		JOINT upperback
		{
			OFFSET 0.004488 0.137956 0.026820
			CHANNELS 3 Zrotation Yrotation Xrotation
			JOINT chest
			{
				OFFSET -0.002265 0.056032 0.002855
				CHANNELS 3 Zrotation Yrotation Xrotation
				JOINT lowerneck
				{
					OFFSET -0.013390 0.211636 -0.033468
					CHANNELS 3 Zrotation Yrotation Xrotation
					JOINT upperneck
					{
						OFFSET 0.010113 0.088937 0.050410
						CHANNELS 3 Zrotation Yrotation Xrotation
						End Site
						{
							OFFSET 0.000000 0.000000 0.000000
						}
					}
				}
				JOINT lclavicle
				{
					OFFSET 0.071702 0.114000 -0.018898
					CHANNELS 3 Zrotation Yrotation Xrotation
					JOINT lshoulder
					{
						OFFSET 0.122921 0.045205 -0.019046
						CHANNELS 3 Zrotation Yrotation Xrotation
						JOINT lelbow
						{
							OFFSET 0.255332 -0.015649 -0.022946
							CHANNELS 3 Zrotation Yrotation Xrotation
							JOINT lwrist
							{
								OFFSET 0.265709 0.012698 -0.007375
								CHANNELS 3 Zrotation Yrotation Xrotation
								End Site
								{
									OFFSET 0.000000 0.000000 0.000000
								}
							}
						}
					}
				}
				JOINT rclavicle
				{
					OFFSET -0.082954 0.112472 -0.023707
					CHANNELS 3 Zrotation Yrotation Xrotation
					JOINT rshoulder
					{
						OFFSET -0.113228 0.046853 -0.008472
						CHANNELS 3 Zrotation Yrotation Xrotation
						JOINT relbow
						{
							OFFSET -0.260127 -0.014369 -0.031269
							CHANNELS 3 Zrotation Yrotation Xrotation
							JOINT rwrist
							{
								OFFSET -0.269108 0.006794 -0.006027
								CHANNELS 3 Zrotation Yrotation Xrotation
								End Site
								{
									OFFSET 0.000000 0.000000 0.000000
								}
							}
						}
					}
				}
			}
		}
	}
}
MOTION
Frames: 11
Frame Time: 0.033333
0.374751 0.136737 0.993001 104.752620 5.463729 95.674061 16.362706 3.886430 -2.703998 -1.464162 -9.028457 -5.902619 -4.230024 9.366235 1.864300 0.000000 -0.000000 0.000000 3.083145 -6.534736 0.900162 2.517262 -8.436854 -3.144016 5.621058 -9.387584 -7.397451 0.000000 -0.000000 0.000000 -16.500646 8.803930 -6.482046 -9.965045 2.350009 4.451134 -1.178975 1.351908 -3.102763 8.524948 12.537051 15.250236 13.820743 11.612962 -5.675299 3.134281 -9.953138 -7.628980 -33.632830 3.549008 -7.814193 19.771586 6.210113 -34.482125 18.466943 1.169215 -9.644275 -16.252440 36.853065 -8.005287 31.376089 58.372057 -0.532219 151.137652 73.054183 143.996437 -19.626420 10.340098 -40.953293 
0.374962 0.136548 0.993530 104.214738 5.446212 95.799747 16.294169 4.006887 -2.565738 -1.420539 -8.716597 -6.133800 -4.249056 9.450751 1.939303 0.000000 -0.000000 0.000000 2.996701 -6.435345 0.702826 2.535906 -8.159793 -3.193026 5.772167 -9.335062 -7.343957 0.000000 -0.000000 0.000000 -16.330655 8.602139 -6.537486 -9.909584 2.111802 3.803879 -1.190402 1.474475 -3.087047 8.495999 12.400743 14.629971 14.104487 10.868211 -5.614163 3.595339 -10.335740 -8.560594 -31.975043 1.769179 -8.290702 19.802941 6.024235 -35.795489 19.132537 1.042335 -9.655178 -16.164824 36.651926 -8.020638 31.288040 57.145815 -0.546232 154.665671 72.040867 147.566355 -20.246282 10.363244 -40.843789 
0.374925 0.136618 0.993917 103.801168 5.452007 95.929020 16.237559 4.034325 -2.516129 -1.390765 -8.392361 -6.279296 -4.237968 9.500082 1.979285 0.000000 -0.000000 0.000000 2.924702 -6.409707 0.494949 2.546089 -7.914050 -3.208510 5.832986 -9.247960 -7.243868 0.000000 -0.000000 0.000000 -16.057598 8.395783 -6.598242 -9.834828 1.910794 3.346247 -1.227358 1.564481 -3.231705 8.578849 12.182430 13.897835 14.382141 10.090808 -5.132998 3.823281 -10.650786 -9.597069 -30.455969 -0.438841 -8.769345 20.066538 5.977728 -38.017098 20.452644 1.159336 -9.506847 -15.976992 36.245048 -7.925828 31.284203 56.045642 -0.366155 158.048161 70.993163 150.904250 -20.963700 10.239842 -40.803814 
0.374724 0.136919 0.994067 103.385814 5.364901 95.997986 16.064649 4.001517 -2.407881 -1.344929 -8.043648 -6.429427 -4.302196 9.586232 1.953027 0.000000 -0.000000 0.000000 2.728224 -6.302007 0.381401 2.573017 -7.704777 -3.266521 5.874079 -9.178199 -7.117824 0.000000 -0.000000 0.000000 -15.869491 8.215997 -6.598493 -9.753069 1.723807 2.887339 -1.225610 1.598972 -3.387015 8.774113 12.301305 13.075250 14.674739 9.143164 -4.316210 3.964533 -11.119022 -10.692039 -29.089043 -2.605636 -9.680675 20.558489 6.085112 -40.823584 20.832715 0.915868 -9.541706 -15.537706 36.050303 -7.956535 31.069850 54.613963 -0.095558 161.045209 69.987906 153.951445 -21.263392 10.374001 -40.807306 
0.374352 0.137746 0.993994 103.123510 5.267806 96.106288 15.845884 3.991592 -2.379437 -1.278909 -7.794000 -6.573777 -4.378491 9.633260 1.831656 0.000000 -0.000000 0.000000 2.493569 -6.163320 0.250822 2.594675 -7.593872 -3.322662 5.929307 -9.182588 -6.991977 0.000000 -0.000000 0.000000 -15.806618 7.960412 -6.581185 -9.471163 1.445938 2.153119 -1.062079 1.617956 -3.365806 8.948515 11.880793 12.467053 14.737482 8.191532 -3.103004 3.963881 -11.643854 -11.528593 -28.131129 -4.823072 -10.601211 21.337407 6.353360 -44.469722 21.613843 0.701919 -10.338724 -14.508668 35.589539 -8.183778 31.041753 53.049760 0.874497 162.491059 68.871666 155.540967 -21.636964 10.689848 -41.228322 
0.373579 0.138921 0.993793 103.026606 5.156892 96.279686 15.642622 3.889616 -2.457244 -1.304351 -7.551625 -6.771063 -4.448616 9.735580 1.759207 0.000000 -0.000000 0.000000 2.235864 -6.072126 -0.004440 2.625408 -7.542305 -3.286570 5.822824 -9.218781 -6.841079 0.000000 -0.000000 0.000000 -15.603918 7.463823 -6.439112 -9.253700 1.038361 1.178603 -1.063742 1.872021 -3.256199 9.345892 10.950479 11.672435 14.836991 7.231973 -1.330656 3.406365 -11.939780 -12.438620 -26.826266 -7.361385 -11.699839 22.936355 5.862242 -49.505154 22.974929 0.738164 -11.212470 -12.434274 34.656998 -8.412672 31.292950 51.439595 2.357288 162.615820 67.578597 155.685860 -21.613114 11.056041 -40.928403 
0.372948 0.140134 0.993442 102.898534 4.919191 96.401116 15.352852 3.965642 -2.439921 -1.461315 -7.429171 -7.011999 -4.386611 9.777339 1.800199 0.000000 -0.000000 0.000000 1.861882 -6.065638 -0.212524 2.587596 -7.455591 -3.192514 5.658702 -9.256709 -6.751466 0.000000 -0.000000 0.000000 -14.945203 7.018286 -6.353207 -9.070476 0.521669 1.209792 -1.175331 1.195022 -3.593788 8.611226 10.630723 10.867440 14.732599 6.302400 -0.261477 1.594553 -11.776612 -13.783935 -24.151467 -8.198680 -12.658582 24.264018 3.735620 -53.882248 24.045544 0.201649 -11.166311 -11.196276 34.979081 -7.902293 30.467916 50.335470 2.806931 164.314734 66.154298 156.994403 -21.808451 11.065243 -40.204563 
0.372297 0.141681 0.993567 102.538551 4.638963 96.430112 14.923451 4.002625 -2.198667 -1.461749 -7.231001 -7.332302 -4.273127 9.930922 1.811973 0.000000 -0.000000 0.000000 1.392080 -5.961928 -0.301102 2.544022 -7.258891 -3.165275 5.699098 -9.301884 -6.581106 0.000000 -0.000000 0.000000 -14.682038 6.558328 -6.427093 -8.836504 0.150572 0.921753 -1.263309 1.265871 -3.587405 8.366263 9.919129 10.007570 15.124762 5.518826 0.854128 0.677864 -11.967183 -14.385814 -22.747869 -9.509145 -12.551643 25.743698 1.414488 -56.460471 24.962288 0.463604 -12.453961 -9.363179 34.476526 -7.397294 30.787395 48.500806 4.221637 165.580132 64.337453 157.911474 -21.764071 10.801053 -40.198913 
0.371611 0.143056 0.993778 101.945435 4.348397 96.416860 14.514351 4.120868 -1.982931 -1.568976 -6.898245 -7.432034 -4.159593 10.037215 1.696178 0.000000 -0.000000 0.000000 0.859831 -5.856472 -0.396585 2.586189 -7.125971 -3.155807 5.690645 -9.077405 -6.391781 0.000000 -0.000000 0.000000 -14.644614 6.173825 -6.768677 -8.367844 -0.190810 1.080621 -1.137434 1.130966 -3.716578 7.970658 9.311514 9.495542 15.063067 4.772529 1.467168 0.040465 -12.037609 -14.366341 -21.601976 -10.359093 -12.777303 27.036644 -0.777914 -58.889620 25.700623 0.357495 -13.475716 -7.616893 33.752846 -6.988918 30.714309 47.015262 5.073496 165.679246 62.803604 157.482173 -21.380010 11.084118 -39.468482 
0.371068 0.144507 0.993903 101.053588 4.093084 96.424972 14.097475 4.226753 -1.684508 -1.606912 -6.388606 -7.580972 -3.941312 10.277519 1.653859 0.000000 -0.000000 0.000000 0.376773 -5.697669 -0.569078 2.535648 -6.798107 -3.097345 5.797289 -8.854461 -6.253369 0.000000 -0.000000 0.000000 -14.379500 5.860130 -7.153706 -7.917437 -0.468178 1.307776 -1.141880 1.162844 -3.986530 7.351127 8.695840 8.960482 15.085505 3.708980 2.136479 -0.357445 -12.192949 -14.585316 -20.296188 -11.330648 -12.777106 27.749318 -1.580790 -59.820572 26.373866 0.058609 -13.940504 -6.121612 33.267010 -6.801620 30.549046 45.193576 6.021571 166.070768 61.434159 157.518052 -21.362585 11.786229 -39.947871 
0.370594 0.146154 0.994068 100.033090 3.838726 96.380916 13.646905 4.332547 -1.394017 -1.622949 -5.815657 -7.542782 -3.714864 10.474424 1.598287 0.000000 -0.000000 0.000000 -0.137125 -5.516627 -0.726478 2.491780 -6.411051 -3.020831 5.939973 -8.568016 -6.098040 0.000000 -0.000000 0.000000 -14.076491 5.570501 -7.580437 -7.488410 -0.633378 1.539548 -1.127661 1.232727 -4.161491 6.888851 8.264062 8.520266 15.006332 2.756420 2.665386 -0.567247 -12.289382 -14.737712 -18.929918 -12.254437 -12.958788 27.993984 -2.170097 -60.935153 26.933186 -0.318950 -14.308475 -4.859193 32.698875 -6.359975 30.241308 43.441303 6.614966 166.569936 60.099911 157.950859 -21.582909 12.126871 -40.251065 
